<?xml version="1.0" encoding="UTF-8" standalone="no"?>
<svg
   width="1em"
   height="1em"
   preserveAspectRatio="xMidYMid meet"
   viewBox="0 0 16 16"
   style="-ms-transform: rotate(360deg); -webkit-transform: rotate(360deg); transform: rotate(360deg);"
   version="1.1"
   id="svg4"
   sodipodi:docname="plug.svg"
   inkscape:version="1.2.1 (9c6d41e410, 2022-07-14)"
   inkscape:export-filename="plug.png"
   inkscape:export-xdpi="96"
   inkscape:export-ydpi="96"
   xmlns:inkscape="http://www.inkscape.org/namespaces/inkscape"
   xmlns:sodipodi="http://sodipodi.sourceforge.net/DTD/sodipodi-0.dtd"
   xmlns="http://www.w3.org/2000/svg"
   xmlns:svg="http://www.w3.org/2000/svg">
  <defs
     id="defs8" />
  <sodipodi:namedview
     id="namedview6"
     pagecolor="#ffffff"
     bordercolor="#000000"
     borderopacity="0.25"
     inkscape:showpageshadow="2"
     inkscape:pageopacity="0.0"
     inkscape:pagecheckerboard="0"
     inkscape:deskcolor="#d1d1d1"
     showgrid="false"
     inkscape:zoom="25.195565"
     inkscape:cx="14.665279"
     inkscape:cy="12.144995"
     inkscape:window-width="1918"
     inkscape:window-height="1013"
     inkscape:window-x="0"
     inkscape:window-y="36"
     inkscape:window-maximized="1"
     inkscape:current-layer="svg4" />
  <path
     fill="currentColor"
     d="M6 0a.5.5 0 0 1 .5.5V3h3V.5a.5.5 0 0 1 1 0V3h1a.5.5 0 0 1 .5.5v3A3.5 3.5 0 0 1 8.5 10c-.002.434-.01.845-.04 1.22c-.041.514-.126 1.003-.317 1.424a2.083 2.083 0 0 1-.97 1.028C6.725 13.9 6.169 14 5.5 14c-.998 0-1.61.33-1.974.718A1.922 1.922 0 0 0 3 16H2c0-.616.232-1.367.797-1.968C3.374 13.42 4.261 13 5.5 13c.581 0 .962-.088 1.218-.219c.241-.123.4-.3.514-.55c.121-.266.193-.621.23-1.09c.027-.34.035-.718.037-1.141A3.5 3.5 0 0 1 4 6.5v-3a.5.5 0 0 1 .5-.5h1V.5A.5.5 0 0 1 6 0zM5 4v2.5A2.5 2.5 0 0 0 7.5 9h1A2.5 2.5 0 0 0 11 6.5V4H5z"
     id="path2"
     style="fill:#a6e3a1;fill-opacity:1" />
</svg>
