<?xml version="1.0" encoding="UTF-8" standalone="no"?>
<svg
   width="32"
   height="32"
   preserveAspectRatio="xMidYMid meet"
   viewBox="0 0 16 16"
   style="-ms-transform: rotate(360deg); -webkit-transform: rotate(360deg); transform: rotate(360deg);"
   version="1.1"
   id="svg451"
   sodipodi:docname="battery-charging.svg"
   inkscape:version="1.2.1 (9c6d41e410, 2022-07-14)"
   inkscape:export-filename="battery-charging.png"
   inkscape:export-xdpi="96"
   inkscape:export-ydpi="96"
   xmlns:inkscape="http://www.inkscape.org/namespaces/inkscape"
   xmlns:sodipodi="http://sodipodi.sourceforge.net/DTD/sodipodi-0.dtd"
   xmlns="http://www.w3.org/2000/svg"
   xmlns:svg="http://www.w3.org/2000/svg">
  <defs
     id="defs455" />
  <sodipodi:namedview
     id="namedview453"
     pagecolor="#ffffff"
     bordercolor="#000000"
     borderopacity="0.25"
     inkscape:showpageshadow="2"
     inkscape:pageopacity="0.0"
     inkscape:pagecheckerboard="0"
     inkscape:deskcolor="#d1d1d1"
     showgrid="false"
     inkscape:zoom="13.427894"
     inkscape:cx="8.0057232"
     inkscape:cy="20.554229"
     inkscape:window-width="960"
     inkscape:window-height="1015"
     inkscape:window-x="0"
     inkscape:window-y="36"
     inkscape:window-maximized="0"
     inkscape:current-layer="g449" />
  <g
     fill="currentColor"
     id="g449">
    <path
       d="M9.585 2.568a.5.5 0 0 1 .226.58L8.677 6.832h1.99a.5.5 0 0 1 .364.843l-5.334 5.667a.5.5 0 0 1-.842-.49L5.99 9.167H4a.5.5 0 0 1-.364-.843l5.333-5.667a.5.5 0 0 1 .616-.09z"
       id="path441"
       style="fill:#f9e2af;fill-opacity:1" />
    <path
       d="M2 4h4.332l-.94 1H2a1 1 0 0 0-1 1v4a1 1 0 0 0 1 1h2.38l-.308 1H2a2 2 0 0 1-2-2V6a2 2 0 0 1 2-2z"
       id="path443"
       style="fill:#cdd6f4;fill-opacity:1" />
    <path
       d="M2 6h2.45L2.908 7.639A1.5 1.5 0 0 0 3.313 10H2V6zm8.595-2l-.308 1H12a1 1 0 0 1 1 1v4a1 1 0 0 1-1 1H9.276l-.942 1H12a2 2 0 0 0 2-2V6a2 2 0 0 0-2-2h-1.405z"
       id="path445"
       style="fill:#cdd6f4;fill-opacity:1" />
    <path
       d="M12 10h-1.783l1.542-1.639c.097-.103.178-.218.241-.34V10zm0-3.354V6h-.646a1.5 1.5 0 0 1 .646.646zM16 8a1.5 1.5 0 0 1-1.5 1.5v-3A1.5 1.5 0 0 1 16 8z"
       id="path447"
       style="fill:#cdd6f4;fill-opacity:1" />
  </g>
</svg>
